<mxfile host="app.diagrams.net" modified="2022-06-05T10:19:39.541Z" agent="5.0 (Windows NT 10.0; Win64; x64) AppleWebKit/537.36 (KHTML, like Gecko) Chrome/102.0.5005.63 Safari/537.36 Edg/102.0.1245.30" etag="IvnEGIT2lGUpIkL_2ruQ" version="19.0.0" type="github">
  <diagram id="qouxATwl1m7sqnrBkAMj" name="Page-1">
    <mxGraphModel dx="868" dy="482" grid="1" gridSize="10" guides="1" tooltips="1" connect="1" arrows="1" fold="1" page="1" pageScale="1" pageWidth="827" pageHeight="1169" math="0" shadow="0">
      <root>
        <mxCell id="0" />
        <mxCell id="1" parent="0" />
        <mxCell id="d70XSH-WNf0LBsqFUmpv-40" style="rounded=0;orthogonalLoop=1;jettySize=auto;html=1;exitX=1;exitY=0.3333333333333333;exitDx=0;exitDy=0;exitPerimeter=0;entryX=0;entryY=0.5;entryDx=0;entryDy=0;strokeColor=#006658;fontColor=#5C5C5C;" parent="1" source="d70XSH-WNf0LBsqFUmpv-1" target="d70XSH-WNf0LBsqFUmpv-2" edge="1">
          <mxGeometry relative="1" as="geometry" />
        </mxCell>
        <mxCell id="d70XSH-WNf0LBsqFUmpv-41" style="edgeStyle=none;rounded=0;orthogonalLoop=1;jettySize=auto;html=1;exitX=1;exitY=0.3333333333333333;exitDx=0;exitDy=0;exitPerimeter=0;entryX=0;entryY=0.5;entryDx=0;entryDy=0;strokeColor=#006658;fontColor=#5C5C5C;" parent="1" source="d70XSH-WNf0LBsqFUmpv-1" target="d70XSH-WNf0LBsqFUmpv-29" edge="1">
          <mxGeometry relative="1" as="geometry" />
        </mxCell>
        <mxCell id="d70XSH-WNf0LBsqFUmpv-42" style="edgeStyle=none;rounded=0;orthogonalLoop=1;jettySize=auto;html=1;exitX=1;exitY=0.3333333333333333;exitDx=0;exitDy=0;exitPerimeter=0;entryX=0;entryY=0.5;entryDx=0;entryDy=0;strokeColor=#006658;fontColor=#5C5C5C;" parent="1" source="d70XSH-WNf0LBsqFUmpv-1" target="d70XSH-WNf0LBsqFUmpv-31" edge="1">
          <mxGeometry relative="1" as="geometry" />
        </mxCell>
        <mxCell id="d70XSH-WNf0LBsqFUmpv-43" style="edgeStyle=none;rounded=0;orthogonalLoop=1;jettySize=auto;html=1;exitX=1;exitY=0.3333333333333333;exitDx=0;exitDy=0;exitPerimeter=0;entryX=0;entryY=0.5;entryDx=0;entryDy=0;strokeColor=#006658;fontColor=#5C5C5C;" parent="1" source="d70XSH-WNf0LBsqFUmpv-1" target="d70XSH-WNf0LBsqFUmpv-30" edge="1">
          <mxGeometry relative="1" as="geometry" />
        </mxCell>
        <mxCell id="d70XSH-WNf0LBsqFUmpv-49" style="edgeStyle=none;rounded=0;orthogonalLoop=1;jettySize=auto;html=1;exitX=1;exitY=0.3333333333333333;exitDx=0;exitDy=0;exitPerimeter=0;entryX=0.027;entryY=0.7;entryDx=0;entryDy=0;entryPerimeter=0;strokeColor=#006658;fontColor=#5C5C5C;" parent="1" source="d70XSH-WNf0LBsqFUmpv-1" target="d70XSH-WNf0LBsqFUmpv-47" edge="1">
          <mxGeometry relative="1" as="geometry" />
        </mxCell>
        <mxCell id="d70XSH-WNf0LBsqFUmpv-1" value="&lt;span dir=&quot;ltr&quot; role=&quot;presentation&quot; style=&quot;left: 58.759px; top: 510.839px; font-size: 10.2561px; font-family: sans-serif; transform: scaleX(1.0864);&quot;&gt;Direction strat&lt;/span&gt;&lt;span dir=&quot;ltr&quot; role=&quot;presentation&quot; style=&quot;left: 128.288px; top: 510.839px; font-size: 10.2561px; font-family: sans-serif;&quot;&gt;é&lt;/span&gt;&lt;span dir=&quot;ltr&quot; role=&quot;presentation&quot; style=&quot;left: 133.992px; top: 510.839px; font-size: 10.2561px; font-family: sans-serif; transform: scaleX(1.05901);&quot;&gt;giques et &lt;br&gt;politiques de l&lt;/span&gt;&lt;span dir=&quot;ltr&quot; role=&quot;presentation&quot; style=&quot;left: 253.661px; top: 510.839px; font-size: 10.2561px; font-family: sans-serif;&quot;&gt;’&lt;/span&gt;&lt;span dir=&quot;ltr&quot; role=&quot;presentation&quot; style=&quot;left: 256.51px; top: 510.839px; font-size: 10.2561px; font-family: sans-serif; transform: scaleX(1.00158);&quot;&gt;emplo&lt;/span&gt;" style="shape=umlActor;verticalLabelPosition=bottom;verticalAlign=top;html=1;outlineConnect=0;fillColor=#21C0A5;strokeColor=#006658;fontColor=#5C5C5C;rounded=0;" parent="1" vertex="1">
          <mxGeometry x="50" y="257.5" width="30" height="60" as="geometry" />
        </mxCell>
        <mxCell id="d70XSH-WNf0LBsqFUmpv-2" value="&lt;span dir=&quot;ltr&quot; role=&quot;presentation&quot; style=&quot;left: 404.489px; top: 309.086px; font-size: 10.2561px; font-family: sans-serif; transform: scaleX(1.06417);&quot;&gt;S&#39;assurer de la coh&lt;/span&gt;&lt;span dir=&quot;ltr&quot; role=&quot;presentation&quot; style=&quot;left: 498.137px; top: 309.086px; font-size: 10.2561px; font-family: sans-serif;&quot;&gt;é&lt;/span&gt;&lt;span dir=&quot;ltr&quot; role=&quot;presentation&quot; style=&quot;left: 503.841px; top: 309.086px; font-size: 10.2561px; font-family: sans-serif; transform: scaleX(1.03301);&quot;&gt;rence et da la conformit&lt;/span&gt;&lt;span dir=&quot;ltr&quot; role=&quot;presentation&quot; style=&quot;left: 619.538px; top: 309.086px; font-size: 10.2561px; font-family: sans-serif;&quot;&gt;é&lt;/span&gt;&lt;span dir=&quot;ltr&quot; role=&quot;presentation&quot; style=&quot;left: 625.242px; top: 309.086px; font-size: 10.2561px; font-family: sans-serif;&quot;&gt; &lt;/span&gt;&lt;span dir=&quot;ltr&quot; role=&quot;presentation&quot; style=&quot;left: 628.091px; top: 309.086px; font-size: 10.2561px; font-family: sans-serif; transform: scaleX(1.10344);&quot;&gt;du dossier&lt;/span&gt;" style="ellipse;whiteSpace=wrap;html=1;fillColor=#21C0A5;strokeColor=#006658;fontColor=#5C5C5C;rounded=0;" parent="1" vertex="1">
          <mxGeometry x="200" y="120" width="240" height="60" as="geometry" />
        </mxCell>
        <mxCell id="d70XSH-WNf0LBsqFUmpv-3" value="&#xa;Incohérent&#xa;&#xa;" style="ellipse;whiteSpace=wrap;html=1;fillColor=#21C0A5;strokeColor=#006658;fontColor=#5C5C5C;rounded=0;" parent="1" vertex="1">
          <mxGeometry x="210" y="240" width="70" height="45" as="geometry" />
        </mxCell>
        <mxCell id="d70XSH-WNf0LBsqFUmpv-5" value="&#xa;exploiter&#xa;&#xa;" style="ellipse;whiteSpace=wrap;html=1;fillColor=#21C0A5;strokeColor=#006658;fontColor=#5C5C5C;rounded=0;" parent="1" vertex="1">
          <mxGeometry x="379" y="240" width="69" height="45" as="geometry" />
        </mxCell>
        <mxCell id="d70XSH-WNf0LBsqFUmpv-23" value="Extends" style="endArrow=block;endFill=0;html=1;rounded=0;exitX=0.5;exitY=0;exitDx=0;exitDy=0;dashed=1;entryX=0.634;entryY=0.986;entryDx=0;entryDy=0;entryPerimeter=0;strokeColor=#006658;fontColor=#5C5C5C;" parent="1" source="d70XSH-WNf0LBsqFUmpv-52" target="d70XSH-WNf0LBsqFUmpv-2" edge="1">
          <mxGeometry width="160" relative="1" as="geometry">
            <mxPoint x="323" y="250" as="sourcePoint" />
            <mxPoint x="480" y="240" as="targetPoint" />
          </mxGeometry>
        </mxCell>
        <mxCell id="d70XSH-WNf0LBsqFUmpv-24" value="Extends" style="endArrow=block;endFill=0;html=1;rounded=0;exitX=0.414;exitY=-0.022;exitDx=0;exitDy=0;dashed=1;exitPerimeter=0;entryX=0.285;entryY=1;entryDx=0;entryDy=0;entryPerimeter=0;strokeColor=#006658;fontColor=#5C5C5C;" parent="1" source="d70XSH-WNf0LBsqFUmpv-3" target="d70XSH-WNf0LBsqFUmpv-2" edge="1">
          <mxGeometry width="160" relative="1" as="geometry">
            <mxPoint x="260" y="250" as="sourcePoint" />
            <mxPoint x="260" y="190" as="targetPoint" />
          </mxGeometry>
        </mxCell>
        <mxCell id="d70XSH-WNf0LBsqFUmpv-25" value="Extends" style="endArrow=block;endFill=0;html=1;rounded=0;exitX=0.5;exitY=0;exitDx=0;exitDy=0;dashed=1;entryX=1;entryY=1;entryDx=0;entryDy=0;strokeColor=#006658;fontColor=#5C5C5C;" parent="1" source="d70XSH-WNf0LBsqFUmpv-5" target="d70XSH-WNf0LBsqFUmpv-2" edge="1">
          <mxGeometry width="160" relative="1" as="geometry">
            <mxPoint x="400" y="240" as="sourcePoint" />
            <mxPoint x="400" y="180" as="targetPoint" />
          </mxGeometry>
        </mxCell>
        <mxCell id="d70XSH-WNf0LBsqFUmpv-27" value="s&#39;authentifier" style="ellipse;whiteSpace=wrap;html=1;fillColor=#21C0A5;strokeColor=#006658;fontColor=#5C5C5C;rounded=0;" parent="1" vertex="1">
          <mxGeometry x="600" y="210" width="120" height="47.5" as="geometry" />
        </mxCell>
        <mxCell id="d70XSH-WNf0LBsqFUmpv-28" value="modifier profile" style="ellipse;whiteSpace=wrap;html=1;fillColor=#21C0A5;strokeColor=#006658;fontColor=#5C5C5C;rounded=0;" parent="1" vertex="1">
          <mxGeometry x="420" y="490" width="110" height="40" as="geometry" />
        </mxCell>
        <mxCell id="d70XSH-WNf0LBsqFUmpv-54" value="" style="edgeStyle=none;rounded=0;orthogonalLoop=1;jettySize=auto;html=1;dashed=1;strokeColor=#006658;fontColor=#5C5C5C;" parent="1" source="d70XSH-WNf0LBsqFUmpv-29" target="d70XSH-WNf0LBsqFUmpv-52" edge="1">
          <mxGeometry relative="1" as="geometry" />
        </mxCell>
        <mxCell id="d70XSH-WNf0LBsqFUmpv-29" value="voir le notification" style="ellipse;whiteSpace=wrap;html=1;fillColor=#21C0A5;strokeColor=#006658;fontColor=#5C5C5C;rounded=0;" parent="1" vertex="1">
          <mxGeometry x="239" y="300" width="171" height="30" as="geometry" />
        </mxCell>
        <mxCell id="d70XSH-WNf0LBsqFUmpv-30" value="voir le profile" style="ellipse;whiteSpace=wrap;html=1;fillColor=#21C0A5;strokeColor=#006658;fontColor=#5C5C5C;rounded=0;" parent="1" vertex="1">
          <mxGeometry x="270" y="460" width="120" height="30" as="geometry" />
        </mxCell>
        <mxCell id="d70XSH-WNf0LBsqFUmpv-31" value="visualiser l&#39;historique" style="ellipse;whiteSpace=wrap;html=1;fillColor=#21C0A5;strokeColor=#006658;fontColor=#5C5C5C;rounded=0;" parent="1" vertex="1">
          <mxGeometry x="260" y="350" width="140" height="40" as="geometry" />
        </mxCell>
        <mxCell id="d70XSH-WNf0LBsqFUmpv-32" value="&#39;&amp;lt;&amp;lt;include&amp;gt;&amp;gt;" style="endArrow=block;endFill=0;html=1;rounded=0;exitX=1;exitY=0.5;exitDx=0;exitDy=0;dashed=1;entryX=0;entryY=0;entryDx=0;entryDy=0;strokeColor=#006658;fontColor=#5C5C5C;" parent="1" edge="1">
          <mxGeometry width="160" relative="1" as="geometry">
            <mxPoint x="446" y="155" as="sourcePoint" />
            <mxPoint x="616.8985017624323" y="217.22775900893237" as="targetPoint" />
          </mxGeometry>
        </mxCell>
        <mxCell id="d70XSH-WNf0LBsqFUmpv-33" value="&#39;&amp;lt;&amp;lt;include&amp;gt;&amp;gt;" style="endArrow=block;endFill=0;html=1;rounded=0;dashed=1;entryX=0.225;entryY=0.905;entryDx=0;entryDy=0;exitX=1;exitY=0.5;exitDx=0;exitDy=0;entryPerimeter=0;strokeColor=#006658;fontColor=#5C5C5C;" parent="1" source="d70XSH-WNf0LBsqFUmpv-31" target="d70XSH-WNf0LBsqFUmpv-27" edge="1">
          <mxGeometry width="160" relative="1" as="geometry">
            <mxPoint x="400" y="380" as="sourcePoint" />
            <mxPoint x="626.8985017624323" y="227.22775900893237" as="targetPoint" />
          </mxGeometry>
        </mxCell>
        <mxCell id="d70XSH-WNf0LBsqFUmpv-34" value="&#39;&amp;lt;&amp;lt;include&amp;gt;&amp;gt;" style="endArrow=block;endFill=0;html=1;rounded=0;exitX=1;exitY=0.5;exitDx=0;exitDy=0;dashed=1;entryX=-0.017;entryY=0.653;entryDx=0;entryDy=0;entryPerimeter=0;strokeColor=#006658;fontColor=#5C5C5C;" parent="1" source="d70XSH-WNf0LBsqFUmpv-29" target="d70XSH-WNf0LBsqFUmpv-27" edge="1">
          <mxGeometry width="160" relative="1" as="geometry">
            <mxPoint x="463.5" y="170" as="sourcePoint" />
            <mxPoint x="610" y="250" as="targetPoint" />
          </mxGeometry>
        </mxCell>
        <mxCell id="d70XSH-WNf0LBsqFUmpv-35" value="&#39;&amp;lt;&amp;lt;include&amp;gt;&amp;gt;" style="endArrow=block;endFill=0;html=1;rounded=0;exitX=0.993;exitY=0.66;exitDx=0;exitDy=0;dashed=1;exitPerimeter=0;entryX=0.442;entryY=0.989;entryDx=0;entryDy=0;entryPerimeter=0;strokeColor=#006658;fontColor=#5C5C5C;" parent="1" source="d70XSH-WNf0LBsqFUmpv-30" target="d70XSH-WNf0LBsqFUmpv-27" edge="1">
          <mxGeometry width="160" relative="1" as="geometry">
            <mxPoint x="473.5" y="180" as="sourcePoint" />
            <mxPoint x="660" y="260" as="targetPoint" />
          </mxGeometry>
        </mxCell>
        <mxCell id="d70XSH-WNf0LBsqFUmpv-46" value="Extends" style="endArrow=block;endFill=0;html=1;rounded=0;exitX=0;exitY=0;exitDx=0;exitDy=0;dashed=1;entryX=1;entryY=1;entryDx=0;entryDy=0;strokeColor=#006658;fontColor=#5C5C5C;" parent="1" source="d70XSH-WNf0LBsqFUmpv-28" target="d70XSH-WNf0LBsqFUmpv-30" edge="1">
          <mxGeometry width="160" relative="1" as="geometry">
            <mxPoint x="388.87" y="510" as="sourcePoint" />
            <mxPoint x="419.9999999999999" y="460.99" as="targetPoint" />
          </mxGeometry>
        </mxCell>
        <mxCell id="d70XSH-WNf0LBsqFUmpv-47" value="infraction" style="ellipse;whiteSpace=wrap;html=1;fillColor=#21C0A5;strokeColor=#006658;fontColor=#5C5C5C;rounded=0;" parent="1" vertex="1">
          <mxGeometry x="275" y="400" width="110" height="40" as="geometry" />
        </mxCell>
        <mxCell id="d70XSH-WNf0LBsqFUmpv-51" value="&#39;&amp;lt;&amp;lt;include&amp;gt;&amp;gt;" style="endArrow=block;endFill=0;html=1;rounded=0;dashed=1;entryX=0.317;entryY=0.989;entryDx=0;entryDy=0;exitX=1;exitY=0.5;exitDx=0;exitDy=0;entryPerimeter=0;strokeColor=#006658;fontColor=#5C5C5C;" parent="1" source="d70XSH-WNf0LBsqFUmpv-47" target="d70XSH-WNf0LBsqFUmpv-27" edge="1">
          <mxGeometry width="160" relative="1" as="geometry">
            <mxPoint x="410" y="380" as="sourcePoint" />
            <mxPoint x="637" y="262.98749999999995" as="targetPoint" />
          </mxGeometry>
        </mxCell>
        <mxCell id="d70XSH-WNf0LBsqFUmpv-52" value="&#xa;&lt;br style=&quot;color: rgb(0, 0, 0); font-family: Helvetica; font-size: 12px; font-style: normal; font-variant-ligatures: normal; font-variant-caps: normal; font-weight: 400; letter-spacing: normal; orphans: 2; text-align: center; text-indent: 0px; text-transform: none; widows: 2; word-spacing: 0px; -webkit-text-stroke-width: 0px; background-color: rgb(248, 249, 250); text-decoration-thickness: initial; text-decoration-style: initial; text-decoration-color: initial;&quot;&gt;&lt;span style=&quot;color: rgb(0, 0, 0); font-family: Helvetica; font-size: 12px; font-style: normal; font-variant-ligatures: normal; font-variant-caps: normal; font-weight: 400; letter-spacing: normal; orphans: 2; text-align: center; text-indent: 0px; text-transform: none; widows: 2; word-spacing: 0px; -webkit-text-stroke-width: 0px; background-color: rgb(248, 249, 250); text-decoration-thickness: initial; text-decoration-style: initial; text-decoration-color: initial; float: none; display: inline !important;&quot;&gt;Incomplet&lt;/span&gt;&#xa;&#xa;" style="ellipse;whiteSpace=wrap;html=1;fillColor=#21C0A5;strokeColor=#006658;fontColor=#5C5C5C;rounded=0;" parent="1" vertex="1">
          <mxGeometry x="287.75" y="248.75" width="84.5" height="27.5" as="geometry" />
        </mxCell>
        <mxCell id="PjjlOr0WNma7_BjB9GHn-1" value="Text" style="text;strokeColor=none;fillColor=none;html=1;align=center;verticalAlign=middle;whiteSpace=wrap;rounded=0;hachureGap=4;fontColor=#5C5C5C;" parent="1" vertex="1">
          <mxGeometry x="410" y="310" width="60" height="30" as="geometry" />
        </mxCell>
      </root>
    </mxGraphModel>
  </diagram>
</mxfile>
